<mxfile host="Electron" modified="2024-04-15T06:54:16.645Z" agent="Mozilla/5.0 (Windows NT 10.0; Win64; x64) AppleWebKit/537.36 (KHTML, like Gecko) draw.io/24.2.5 Chrome/120.0.6099.109 Electron/28.1.0 Safari/537.36" etag="2lWtUBuw-9Dlzfk2b1bj" version="24.2.5" type="device">
  <diagram name="페이지-1" id="TaWvOpZKb26jCdmRZGYh">
    <mxGraphModel dx="2261" dy="836" grid="1" gridSize="10" guides="1" tooltips="1" connect="1" arrows="1" fold="1" page="1" pageScale="1" pageWidth="827" pageHeight="1169" math="0" shadow="0">
      <root>
        <mxCell id="0" />
        <mxCell id="1" parent="0" />
        <mxCell id="L_D38SVKSY9WNphwLM6R-3" style="edgeStyle=orthogonalEdgeStyle;rounded=0;orthogonalLoop=1;jettySize=auto;html=1;exitX=1;exitY=0.5;exitDx=0;exitDy=0;entryX=0;entryY=0.5;entryDx=0;entryDy=0;" parent="1" source="L_D38SVKSY9WNphwLM6R-1" target="L_D38SVKSY9WNphwLM6R-2" edge="1">
          <mxGeometry relative="1" as="geometry" />
        </mxCell>
        <mxCell id="L_D38SVKSY9WNphwLM6R-12" style="edgeStyle=orthogonalEdgeStyle;rounded=0;orthogonalLoop=1;jettySize=auto;html=1;exitX=0;exitY=0.5;exitDx=0;exitDy=0;entryX=1;entryY=0.5;entryDx=0;entryDy=0;" parent="1" source="L_D38SVKSY9WNphwLM6R-1" target="L_D38SVKSY9WNphwLM6R-11" edge="1">
          <mxGeometry relative="1" as="geometry" />
        </mxCell>
        <mxCell id="L_D38SVKSY9WNphwLM6R-23" style="edgeStyle=orthogonalEdgeStyle;rounded=0;orthogonalLoop=1;jettySize=auto;html=1;exitX=0.321;exitY=1.007;exitDx=0;exitDy=0;entryX=0.5;entryY=0;entryDx=0;entryDy=0;exitPerimeter=0;" parent="1" source="L_D38SVKSY9WNphwLM6R-1" target="L_D38SVKSY9WNphwLM6R-21" edge="1">
          <mxGeometry relative="1" as="geometry">
            <Array as="points">
              <mxPoint x="319" y="380" />
              <mxPoint x="140" y="380" />
            </Array>
          </mxGeometry>
        </mxCell>
        <mxCell id="L_D38SVKSY9WNphwLM6R-31" style="edgeStyle=orthogonalEdgeStyle;rounded=0;orthogonalLoop=1;jettySize=auto;html=1;exitX=0.75;exitY=1;exitDx=0;exitDy=0;entryX=0;entryY=0.5;entryDx=0;entryDy=0;fillColor=#1ba1e2;strokeColor=#006EAF;" parent="1" source="L_D38SVKSY9WNphwLM6R-1" target="L_D38SVKSY9WNphwLM6R-30" edge="1">
          <mxGeometry relative="1" as="geometry" />
        </mxCell>
        <mxCell id="L_D38SVKSY9WNphwLM6R-1" value="&lt;div&gt;[시작]&lt;/div&gt;&lt;div&gt;index.do&lt;/div&gt;&lt;div&gt;&lt;br&gt;&lt;/div&gt;Index.java&lt;div&gt;+&lt;br&gt;&lt;div&gt;index.jsp&lt;/div&gt;&lt;/div&gt;" style="whiteSpace=wrap;html=1;" parent="1" vertex="1">
          <mxGeometry x="280" y="160" width="120" height="160" as="geometry" />
        </mxCell>
        <mxCell id="L_D38SVKSY9WNphwLM6R-4" style="edgeStyle=orthogonalEdgeStyle;rounded=0;orthogonalLoop=1;jettySize=auto;html=1;exitX=0;exitY=0.75;exitDx=0;exitDy=0;entryX=1;entryY=0.75;entryDx=0;entryDy=0;" parent="1" source="L_D38SVKSY9WNphwLM6R-2" target="L_D38SVKSY9WNphwLM6R-1" edge="1">
          <mxGeometry relative="1" as="geometry" />
        </mxCell>
        <mxCell id="L_D38SVKSY9WNphwLM6R-6" style="edgeStyle=orthogonalEdgeStyle;rounded=0;orthogonalLoop=1;jettySize=auto;html=1;exitX=1;exitY=0.5;exitDx=0;exitDy=0;entryX=0;entryY=0.5;entryDx=0;entryDy=0;fillColor=#1ba1e2;strokeColor=#006EAF;" parent="1" source="L_D38SVKSY9WNphwLM6R-2" target="L_D38SVKSY9WNphwLM6R-5" edge="1">
          <mxGeometry relative="1" as="geometry" />
        </mxCell>
        <mxCell id="L_D38SVKSY9WNphwLM6R-2" value="&lt;div&gt;[회원가입폼]&lt;/div&gt;&lt;div&gt;user/register.do&lt;/div&gt;&lt;div&gt;&lt;br&gt;&lt;/div&gt;Register.java&lt;div&gt;+&lt;br&gt;&lt;div&gt;register.jsp&lt;/div&gt;&lt;/div&gt;" style="whiteSpace=wrap;html=1;" parent="1" vertex="1">
          <mxGeometry x="480" y="160" width="120" height="160" as="geometry" />
        </mxCell>
        <mxCell id="L_D38SVKSY9WNphwLM6R-7" style="edgeStyle=orthogonalEdgeStyle;rounded=0;orthogonalLoop=1;jettySize=auto;html=1;exitX=0;exitY=0.75;exitDx=0;exitDy=0;entryX=1;entryY=0.75;entryDx=0;entryDy=0;" parent="1" source="L_D38SVKSY9WNphwLM6R-5" target="L_D38SVKSY9WNphwLM6R-2" edge="1">
          <mxGeometry relative="1" as="geometry" />
        </mxCell>
        <mxCell id="L_D38SVKSY9WNphwLM6R-8" value="실패" style="edgeLabel;html=1;align=center;verticalAlign=middle;resizable=0;points=[];" parent="L_D38SVKSY9WNphwLM6R-7" vertex="1" connectable="0">
          <mxGeometry relative="1" as="geometry">
            <mxPoint as="offset" />
          </mxGeometry>
        </mxCell>
        <mxCell id="L_D38SVKSY9WNphwLM6R-9" style="edgeStyle=orthogonalEdgeStyle;rounded=0;orthogonalLoop=1;jettySize=auto;html=1;exitX=0.5;exitY=0;exitDx=0;exitDy=0;entryX=0.5;entryY=0;entryDx=0;entryDy=0;" parent="1" source="L_D38SVKSY9WNphwLM6R-5" target="L_D38SVKSY9WNphwLM6R-1" edge="1">
          <mxGeometry relative="1" as="geometry">
            <Array as="points">
              <mxPoint x="740" y="120" />
              <mxPoint x="340" y="120" />
            </Array>
          </mxGeometry>
        </mxCell>
        <mxCell id="L_D38SVKSY9WNphwLM6R-10" value="성공" style="edgeLabel;html=1;align=center;verticalAlign=middle;resizable=0;points=[];" parent="L_D38SVKSY9WNphwLM6R-9" vertex="1" connectable="0">
          <mxGeometry x="-0.0018" y="2" relative="1" as="geometry">
            <mxPoint as="offset" />
          </mxGeometry>
        </mxCell>
        <mxCell id="L_D38SVKSY9WNphwLM6R-5" value="&lt;div&gt;[회원가입처리]&lt;/div&gt;&lt;div&gt;user/registerok.do&lt;/div&gt;&lt;div&gt;&lt;br&gt;&lt;/div&gt;RegisterOk.java" style="whiteSpace=wrap;html=1;fillColor=#1ba1e2;fontColor=#ffffff;strokeColor=#006EAF;" parent="1" vertex="1">
          <mxGeometry x="680" y="160" width="120" height="160" as="geometry" />
        </mxCell>
        <mxCell id="L_D38SVKSY9WNphwLM6R-13" style="edgeStyle=orthogonalEdgeStyle;rounded=0;orthogonalLoop=1;jettySize=auto;html=1;exitX=1;exitY=0.75;exitDx=0;exitDy=0;entryX=0;entryY=0.75;entryDx=0;entryDy=0;" parent="1" source="L_D38SVKSY9WNphwLM6R-11" target="L_D38SVKSY9WNphwLM6R-1" edge="1">
          <mxGeometry relative="1" as="geometry" />
        </mxCell>
        <mxCell id="L_D38SVKSY9WNphwLM6R-15" style="edgeStyle=orthogonalEdgeStyle;rounded=0;orthogonalLoop=1;jettySize=auto;html=1;exitX=0;exitY=0.5;exitDx=0;exitDy=0;entryX=1;entryY=0.5;entryDx=0;entryDy=0;fillColor=#1ba1e2;strokeColor=#006EAF;" parent="1" source="L_D38SVKSY9WNphwLM6R-11" target="L_D38SVKSY9WNphwLM6R-14" edge="1">
          <mxGeometry relative="1" as="geometry" />
        </mxCell>
        <mxCell id="L_D38SVKSY9WNphwLM6R-11" value="&lt;div&gt;[회원탈퇴]&lt;/div&gt;&lt;div&gt;user/unregister.do&lt;/div&gt;&lt;div&gt;&lt;br&gt;&lt;/div&gt;Unregister.java&lt;div&gt;+&lt;br&gt;&lt;div&gt;unregister.jsp&lt;/div&gt;&lt;/div&gt;" style="whiteSpace=wrap;html=1;" parent="1" vertex="1">
          <mxGeometry x="80" y="160" width="120" height="160" as="geometry" />
        </mxCell>
        <mxCell id="L_D38SVKSY9WNphwLM6R-16" style="edgeStyle=orthogonalEdgeStyle;rounded=0;orthogonalLoop=1;jettySize=auto;html=1;exitX=1;exitY=0.75;exitDx=0;exitDy=0;entryX=0;entryY=0.75;entryDx=0;entryDy=0;" parent="1" source="L_D38SVKSY9WNphwLM6R-14" target="L_D38SVKSY9WNphwLM6R-11" edge="1">
          <mxGeometry relative="1" as="geometry" />
        </mxCell>
        <mxCell id="L_D38SVKSY9WNphwLM6R-17" value="실패" style="edgeLabel;html=1;align=center;verticalAlign=middle;resizable=0;points=[];" parent="L_D38SVKSY9WNphwLM6R-16" vertex="1" connectable="0">
          <mxGeometry x="-0.015" y="-1" relative="1" as="geometry">
            <mxPoint as="offset" />
          </mxGeometry>
        </mxCell>
        <mxCell id="L_D38SVKSY9WNphwLM6R-19" style="edgeStyle=orthogonalEdgeStyle;rounded=0;orthogonalLoop=1;jettySize=auto;html=1;exitX=0.5;exitY=0;exitDx=0;exitDy=0;entryX=0.25;entryY=0;entryDx=0;entryDy=0;" parent="1" source="L_D38SVKSY9WNphwLM6R-14" target="L_D38SVKSY9WNphwLM6R-1" edge="1">
          <mxGeometry relative="1" as="geometry">
            <Array as="points">
              <mxPoint x="-60" y="120" />
              <mxPoint x="310" y="120" />
            </Array>
          </mxGeometry>
        </mxCell>
        <mxCell id="L_D38SVKSY9WNphwLM6R-20" value="성공" style="edgeLabel;html=1;align=center;verticalAlign=middle;resizable=0;points=[];" parent="L_D38SVKSY9WNphwLM6R-19" vertex="1" connectable="0">
          <mxGeometry y="-1" relative="1" as="geometry">
            <mxPoint as="offset" />
          </mxGeometry>
        </mxCell>
        <mxCell id="L_D38SVKSY9WNphwLM6R-14" value="&lt;div&gt;[회원탈퇴처리]&lt;/div&gt;&lt;div&gt;user/unregisterok.do&lt;/div&gt;&lt;div&gt;&lt;br&gt;&lt;/div&gt;UnRegisterOk.java" style="whiteSpace=wrap;html=1;fillColor=#1ba1e2;fontColor=#ffffff;strokeColor=#006EAF;" parent="1" vertex="1">
          <mxGeometry x="-120" y="160" width="120" height="160" as="geometry" />
        </mxCell>
        <mxCell id="L_D38SVKSY9WNphwLM6R-25" style="edgeStyle=orthogonalEdgeStyle;rounded=0;orthogonalLoop=1;jettySize=auto;html=1;exitX=0;exitY=0.5;exitDx=0;exitDy=0;entryX=1;entryY=0.5;entryDx=0;entryDy=0;fillColor=#1ba1e2;strokeColor=#006EAF;" parent="1" source="L_D38SVKSY9WNphwLM6R-21" target="L_D38SVKSY9WNphwLM6R-24" edge="1">
          <mxGeometry relative="1" as="geometry" />
        </mxCell>
        <mxCell id="L_D38SVKSY9WNphwLM6R-21" value="&lt;div&gt;[로그인폼]&lt;/div&gt;&lt;div&gt;user/login.do&lt;/div&gt;&lt;div&gt;&lt;br&gt;&lt;/div&gt;Login.java&lt;div&gt;+&lt;br&gt;&lt;div&gt;login.jsp&lt;/div&gt;&lt;/div&gt;" style="whiteSpace=wrap;html=1;" parent="1" vertex="1">
          <mxGeometry x="80" y="400" width="120" height="160" as="geometry" />
        </mxCell>
        <mxCell id="L_D38SVKSY9WNphwLM6R-26" style="edgeStyle=orthogonalEdgeStyle;rounded=0;orthogonalLoop=1;jettySize=auto;html=1;exitX=1;exitY=0.75;exitDx=0;exitDy=0;entryX=0;entryY=0.75;entryDx=0;entryDy=0;" parent="1" source="L_D38SVKSY9WNphwLM6R-24" target="L_D38SVKSY9WNphwLM6R-21" edge="1">
          <mxGeometry relative="1" as="geometry" />
        </mxCell>
        <mxCell id="L_D38SVKSY9WNphwLM6R-29" value="실패" style="edgeLabel;html=1;align=center;verticalAlign=middle;resizable=0;points=[];" parent="L_D38SVKSY9WNphwLM6R-26" vertex="1" connectable="0">
          <mxGeometry x="-0.0833" y="-1" relative="1" as="geometry">
            <mxPoint as="offset" />
          </mxGeometry>
        </mxCell>
        <mxCell id="L_D38SVKSY9WNphwLM6R-27" style="edgeStyle=orthogonalEdgeStyle;rounded=0;orthogonalLoop=1;jettySize=auto;html=1;exitX=0.5;exitY=0;exitDx=0;exitDy=0;entryX=0.147;entryY=1.01;entryDx=0;entryDy=0;entryPerimeter=0;" parent="1" source="L_D38SVKSY9WNphwLM6R-24" target="L_D38SVKSY9WNphwLM6R-1" edge="1">
          <mxGeometry relative="1" as="geometry">
            <Array as="points">
              <mxPoint x="-60" y="350" />
              <mxPoint x="298" y="350" />
              <mxPoint x="298" y="322" />
            </Array>
          </mxGeometry>
        </mxCell>
        <mxCell id="L_D38SVKSY9WNphwLM6R-28" value="성공" style="edgeLabel;html=1;align=center;verticalAlign=middle;resizable=0;points=[];" parent="L_D38SVKSY9WNphwLM6R-27" vertex="1" connectable="0">
          <mxGeometry x="0.0492" relative="1" as="geometry">
            <mxPoint as="offset" />
          </mxGeometry>
        </mxCell>
        <mxCell id="L_D38SVKSY9WNphwLM6R-24" value="&lt;div&gt;[로그인처리]&lt;/div&gt;&lt;div&gt;user/loginok.do&lt;/div&gt;&lt;div&gt;&lt;br&gt;&lt;/div&gt;LoginOk.java" style="whiteSpace=wrap;html=1;fillColor=#1ba1e2;fontColor=#ffffff;strokeColor=#006EAF;" parent="1" vertex="1">
          <mxGeometry x="-120" y="400" width="120" height="160" as="geometry" />
        </mxCell>
        <mxCell id="L_D38SVKSY9WNphwLM6R-30" value="&lt;div&gt;[로그아웃처리]&lt;/div&gt;&lt;div&gt;user/logoutok.do&lt;/div&gt;&lt;div&gt;&lt;br&gt;&lt;/div&gt;LogoutOk.java" style="whiteSpace=wrap;html=1;fillColor=#1ba1e2;fontColor=#ffffff;strokeColor=#006EAF;" parent="1" vertex="1">
          <mxGeometry x="480" y="400" width="120" height="160" as="geometry" />
        </mxCell>
        <mxCell id="L_D38SVKSY9WNphwLM6R-32" style="edgeStyle=orthogonalEdgeStyle;rounded=0;orthogonalLoop=1;jettySize=auto;html=1;exitX=0;exitY=0.25;exitDx=0;exitDy=0;entryX=0.886;entryY=1;entryDx=0;entryDy=0;entryPerimeter=0;" parent="1" source="L_D38SVKSY9WNphwLM6R-30" target="L_D38SVKSY9WNphwLM6R-1" edge="1">
          <mxGeometry relative="1" as="geometry" />
        </mxCell>
        <mxCell id="L_D38SVKSY9WNphwLM6R-33" value="성공/실패" style="edgeLabel;html=1;align=center;verticalAlign=middle;resizable=0;points=[];" parent="L_D38SVKSY9WNphwLM6R-32" vertex="1" connectable="0">
          <mxGeometry x="-0.3698" y="-1" relative="1" as="geometry">
            <mxPoint as="offset" />
          </mxGeometry>
        </mxCell>
        <mxCell id="hD6-Wt2fxB76UMGqvcZH-3" style="edgeStyle=orthogonalEdgeStyle;rounded=0;orthogonalLoop=1;jettySize=auto;html=1;entryX=0;entryY=0.5;entryDx=0;entryDy=0;" edge="1" parent="1" source="hD6-Wt2fxB76UMGqvcZH-1" target="hD6-Wt2fxB76UMGqvcZH-2">
          <mxGeometry relative="1" as="geometry" />
        </mxCell>
        <mxCell id="hD6-Wt2fxB76UMGqvcZH-14" style="edgeStyle=orthogonalEdgeStyle;rounded=0;orthogonalLoop=1;jettySize=auto;html=1;entryX=0.5;entryY=0;entryDx=0;entryDy=0;" edge="1" parent="1" source="hD6-Wt2fxB76UMGqvcZH-1" target="hD6-Wt2fxB76UMGqvcZH-8">
          <mxGeometry relative="1" as="geometry" />
        </mxCell>
        <mxCell id="hD6-Wt2fxB76UMGqvcZH-1" value="[게시판 목록보기]&lt;div&gt;board/list.do&lt;/div&gt;&lt;div&gt;&lt;br&gt;&lt;/div&gt;&lt;div&gt;List.java&lt;/div&gt;&lt;div&gt;list.jsp&lt;/div&gt;" style="rounded=0;whiteSpace=wrap;html=1;" vertex="1" parent="1">
          <mxGeometry x="200" y="660" width="120" height="230" as="geometry" />
        </mxCell>
        <mxCell id="hD6-Wt2fxB76UMGqvcZH-5" style="edgeStyle=orthogonalEdgeStyle;rounded=0;orthogonalLoop=1;jettySize=auto;html=1;entryX=0;entryY=0.5;entryDx=0;entryDy=0;fillColor=#dae8fc;strokeColor=#6c8ebf;" edge="1" parent="1" source="hD6-Wt2fxB76UMGqvcZH-2" target="hD6-Wt2fxB76UMGqvcZH-4">
          <mxGeometry relative="1" as="geometry" />
        </mxCell>
        <mxCell id="hD6-Wt2fxB76UMGqvcZH-2" value="[게시판 글 쓰기 폼]&lt;div&gt;board/add.do&lt;/div&gt;&lt;div&gt;&lt;br&gt;&lt;/div&gt;&lt;div&gt;Add.java&lt;/div&gt;&lt;div&gt;add.jsp&lt;/div&gt;" style="rounded=0;whiteSpace=wrap;html=1;" vertex="1" parent="1">
          <mxGeometry x="430" y="660" width="120" height="230" as="geometry" />
        </mxCell>
        <mxCell id="hD6-Wt2fxB76UMGqvcZH-6" style="edgeStyle=orthogonalEdgeStyle;rounded=0;orthogonalLoop=1;jettySize=auto;html=1;entryX=0.5;entryY=0;entryDx=0;entryDy=0;" edge="1" parent="1" source="hD6-Wt2fxB76UMGqvcZH-4" target="hD6-Wt2fxB76UMGqvcZH-1">
          <mxGeometry relative="1" as="geometry">
            <Array as="points">
              <mxPoint x="680" y="630" />
              <mxPoint x="260" y="630" />
            </Array>
          </mxGeometry>
        </mxCell>
        <mxCell id="hD6-Wt2fxB76UMGqvcZH-7" value="성공" style="edgeLabel;html=1;align=center;verticalAlign=middle;resizable=0;points=[];" vertex="1" connectable="0" parent="hD6-Wt2fxB76UMGqvcZH-6">
          <mxGeometry x="-0.3792" y="2" relative="1" as="geometry">
            <mxPoint as="offset" />
          </mxGeometry>
        </mxCell>
        <mxCell id="hD6-Wt2fxB76UMGqvcZH-4" value="[게시판 글 쓰기 처리]&lt;div&gt;board/add.do&lt;/div&gt;&lt;div&gt;&lt;br&gt;&lt;/div&gt;&lt;div&gt;Add.java&lt;/div&gt;" style="rounded=0;whiteSpace=wrap;html=1;" vertex="1" parent="1">
          <mxGeometry x="620" y="660" width="120" height="230" as="geometry" />
        </mxCell>
        <mxCell id="hD6-Wt2fxB76UMGqvcZH-11" style="edgeStyle=orthogonalEdgeStyle;rounded=0;orthogonalLoop=1;jettySize=auto;html=1;entryX=0;entryY=0.5;entryDx=0;entryDy=0;" edge="1" parent="1" source="hD6-Wt2fxB76UMGqvcZH-8" target="hD6-Wt2fxB76UMGqvcZH-9">
          <mxGeometry relative="1" as="geometry" />
        </mxCell>
        <mxCell id="hD6-Wt2fxB76UMGqvcZH-8" value="[게시판 상세보기]&lt;div&gt;board/view.do&lt;/div&gt;&lt;div&gt;&lt;br&gt;&lt;/div&gt;&lt;div&gt;View.java&lt;/div&gt;&lt;div&gt;view.jsp&lt;/div&gt;" style="rounded=0;whiteSpace=wrap;html=1;" vertex="1" parent="1">
          <mxGeometry x="200" y="920" width="120" height="230" as="geometry" />
        </mxCell>
        <mxCell id="hD6-Wt2fxB76UMGqvcZH-12" style="edgeStyle=orthogonalEdgeStyle;rounded=0;orthogonalLoop=1;jettySize=auto;html=1;entryX=0;entryY=0.5;entryDx=0;entryDy=0;" edge="1" parent="1" source="hD6-Wt2fxB76UMGqvcZH-9" target="hD6-Wt2fxB76UMGqvcZH-10">
          <mxGeometry relative="1" as="geometry" />
        </mxCell>
        <mxCell id="hD6-Wt2fxB76UMGqvcZH-9" value="[게시판 수정하기폼]&lt;div&gt;board/edit.do&lt;/div&gt;&lt;div&gt;&lt;br&gt;&lt;/div&gt;&lt;div&gt;Edit.java&lt;/div&gt;&lt;div&gt;edit.jsp&lt;/div&gt;" style="rounded=0;whiteSpace=wrap;html=1;" vertex="1" parent="1">
          <mxGeometry x="400" y="920" width="120" height="230" as="geometry" />
        </mxCell>
        <mxCell id="hD6-Wt2fxB76UMGqvcZH-10" value="[게시판 수정하기처리]&lt;div&gt;board/edit.do&lt;/div&gt;&lt;div&gt;&lt;br&gt;&lt;/div&gt;&lt;div&gt;Edit.java&lt;/div&gt;" style="rounded=0;whiteSpace=wrap;html=1;" vertex="1" parent="1">
          <mxGeometry x="620" y="920" width="120" height="230" as="geometry" />
        </mxCell>
        <mxCell id="hD6-Wt2fxB76UMGqvcZH-13" style="edgeStyle=orthogonalEdgeStyle;rounded=0;orthogonalLoop=1;jettySize=auto;html=1;entryX=0.558;entryY=1.004;entryDx=0;entryDy=0;entryPerimeter=0;" edge="1" parent="1" source="hD6-Wt2fxB76UMGqvcZH-10" target="hD6-Wt2fxB76UMGqvcZH-8">
          <mxGeometry relative="1" as="geometry">
            <Array as="points">
              <mxPoint x="680" y="1190" />
              <mxPoint x="470" y="1190" />
              <mxPoint x="470" y="1170" />
              <mxPoint x="267" y="1170" />
            </Array>
          </mxGeometry>
        </mxCell>
        <mxCell id="hD6-Wt2fxB76UMGqvcZH-15" style="edgeStyle=orthogonalEdgeStyle;rounded=0;orthogonalLoop=1;jettySize=auto;html=1;entryX=0.358;entryY=-0.022;entryDx=0;entryDy=0;entryPerimeter=0;" edge="1" parent="1" source="L_D38SVKSY9WNphwLM6R-1" target="hD6-Wt2fxB76UMGqvcZH-1">
          <mxGeometry relative="1" as="geometry" />
        </mxCell>
        <mxCell id="hD6-Wt2fxB76UMGqvcZH-16" value="[게시판 삭제하기]&lt;div&gt;board/del.do&lt;/div&gt;&lt;div&gt;&lt;br&gt;&lt;/div&gt;&lt;div&gt;Del.java&lt;/div&gt;&lt;div&gt;del.jsp&lt;/div&gt;" style="rounded=0;whiteSpace=wrap;html=1;" vertex="1" parent="1">
          <mxGeometry x="10" y="650" width="120" height="230" as="geometry" />
        </mxCell>
      </root>
    </mxGraphModel>
  </diagram>
</mxfile>
